<?xml version="1.0" standalone="no"?>
<!DOCTYPE svg PUBLIC "-//W3C//DTD SVG 20010904//EN"
 "http://www.w3.org/TR/2001/REC-SVG-20010904/DTD/svg10.dtd">
<svg version="1.0" xmlns="http://www.w3.org/2000/svg"
 width="260.000000pt" height="260.000000pt" viewBox="0 0 260.000000 260.000000"
 preserveAspectRatio="xMidYMid meet">
<metadata>
Created by potrace 1.11, written by Peter Selinger 2001-2013
</metadata>
<g transform="translate(0.000000,260.000000) scale(0.100000,-0.100000)"
fill="#000000" stroke="none">
<path d="M0 1300 l0 -1300 1300 0 1300 0 0 1300 0 1300 -1300 0 -1300 0 0
-1300z m1932 484 c62 -18 133 -63 168 -106 20 -26 74 -138 66 -138 -2 0 0 -16
4 -35 6 -27 5 -35 -6 -36 -8 0 -43 0 -79 0 -149 0 -145 -1 -145 22 0 36 -40
95 -76 113 -42 20 -113 21 -158 2 -75 -31 -117 -135 -118 -293 -2 -201 34
-293 127 -329 55 -21 160 -16 198 9 25 16 26 21 24 94 l-2 78 -80 0 -80 0 -3
83 -3 82 205 0 204 0 0 -202 c0 -233 2 -227 -98 -278 -150 -76 -362 -87 -496
-26 -120 55 -210 180 -230 320 -11 80 -11 232 2 301 30 170 127 292 269 338
28 9 64 18 80 20 55 7 168 -3 227 -19z m-1005 -15 c142 -49 227 -132 285 -281
17 -44 21 -77 22 -188 0 -117 -3 -144 -23 -200 -50 -141 -159 -244 -300 -286
-75 -22 -441 -26 -449 -5 -3 8 -6 232 -6 498 l-1 484 208 -1 c178 -1 216 -4
264 -21z"/>
<path d="M699 1593 c-1 -24 -1 -562 0 -591 1 -22 4 -23 64 -21 175 6 240 108
230 360 -5 124 -45 209 -115 245 -16 8 -63 18 -104 21 -67 4 -74 3 -75 -14z"/>
</g>
</svg>
